<mxfile host="65bd71144e">
    <diagram name="Page-1" id="e7e014a7-5840-1c2e-5031-d8a46d1fe8dd">
        <mxGraphModel dx="1340" dy="821" grid="1" gridSize="10" guides="1" tooltips="1" connect="1" arrows="1" fold="1" page="1" pageScale="1" pageWidth="1169" pageHeight="826" background="none" math="0" shadow="0">
            <root>
                <mxCell id="0"/>
                <mxCell id="1" parent="0"/>
                <mxCell id="67" value="User" style="swimlane;whiteSpace=wrap;movable=0;" vertex="1" parent="1">
                    <mxGeometry x="164.5" y="128" width="280" height="570" as="geometry"/>
                </mxCell>
                <mxCell id="68" value="" style="ellipse;shape=startState;fillColor=#000000;strokeColor=#ff0000;" vertex="1" parent="67">
                    <mxGeometry x="125" y="32" width="30" height="30" as="geometry"/>
                </mxCell>
                <mxCell id="69" value="" style="edgeStyle=elbowEdgeStyle;elbow=horizontal;verticalAlign=bottom;endArrow=open;endSize=8;endFill=1;rounded=1;strokeColor=#FF0000;" edge="1" parent="67" source="68" target="70">
                    <mxGeometry x="100" y="40" as="geometry">
                        <mxPoint x="115" y="110" as="targetPoint"/>
                    </mxGeometry>
                </mxCell>
                <mxCell id="70" value="click on search bar" style="" vertex="1" parent="67">
                    <mxGeometry x="65" y="82" width="150" height="50" as="geometry"/>
                </mxCell>
                <mxCell id="71" value="input name or EAN" style="" vertex="1" parent="67">
                    <mxGeometry x="65" y="152" width="150" height="50" as="geometry"/>
                </mxCell>
                <mxCell id="72" value="" style="endArrow=open;endFill=1;rounded=1;strokeColor=#FF0000;" edge="1" parent="67" source="70" target="71">
                    <mxGeometry relative="1" as="geometry"/>
                </mxCell>
                <mxCell id="73" value="click on specific product" style="html=1;" vertex="1" parent="67">
                    <mxGeometry x="65" y="332" width="150" height="50" as="geometry"/>
                </mxCell>
                <mxCell id="74" value="o" style="swimlane;whiteSpace=wrap;startSize=23;movable=0;" vertex="1" parent="1">
                    <mxGeometry x="444.5" y="128" width="280" height="570" as="geometry"/>
                </mxCell>
                <mxCell id="75" value="list product(s)" style="html=1;" vertex="1" parent="74">
                    <mxGeometry x="65.5" y="332" width="150" height="50" as="geometry"/>
                </mxCell>
                <mxCell id="76" value="show error message" style="html=1;" vertex="1" parent="74">
                    <mxGeometry x="65.5" y="232" width="150" height="50" as="geometry"/>
                </mxCell>
                <mxCell id="77" value="" style="ellipse;html=1;shape=endState;fillColor=#000000;strokeColor=#ff0000;" vertex="1" parent="74">
                    <mxGeometry x="125.5" y="532" width="30" height="30" as="geometry"/>
                </mxCell>
                <mxCell id="78" style="edgeStyle=orthogonalEdgeStyle;rounded=0;orthogonalLoop=1;jettySize=auto;html=1;exitX=0.5;exitY=1;exitDx=0;exitDy=0;entryX=0.5;entryY=0;entryDx=0;entryDy=0;strokeColor=#FF0000;" edge="1" parent="74" source="79" target="77">
                    <mxGeometry relative="1" as="geometry"/>
                </mxCell>
                <mxCell id="79" value="open product page&amp;nbsp;" style="html=1;" vertex="1" parent="74">
                    <mxGeometry x="65.5" y="432" width="150" height="50" as="geometry"/>
                </mxCell>
                <mxCell id="80" value="Firebase" style="swimlane;whiteSpace=wrap;startSize=23;movable=0;" vertex="1" parent="1">
                    <mxGeometry x="724.5" y="128" width="280" height="570" as="geometry"/>
                </mxCell>
                <mxCell id="81" value="fetch possible&#10;results" style="" vertex="1" parent="80">
                    <mxGeometry x="65" y="152" width="150" height="50" as="geometry"/>
                </mxCell>
                <mxCell id="82" value="" style="endArrow=open;endFill=1;rounded=1;entryX=0.5;entryY=0;entryDx=0;entryDy=0;strokeColor=#FF0000;" edge="1" parent="80" source="81" target="83">
                    <mxGeometry relative="1" as="geometry">
                        <mxPoint x="-260" y="350" as="targetPoint"/>
                    </mxGeometry>
                </mxCell>
                <mxCell id="83" value="&lt;font color=&quot;#000000&quot;&gt;Nr of results&lt;/font&gt;" style="rhombus;whiteSpace=wrap;html=1;fillColor=#ffffc0;strokeColor=#ff0000;" vertex="1" parent="80">
                    <mxGeometry x="100" y="233" width="80" height="48" as="geometry"/>
                </mxCell>
                <mxCell id="84" value="" style="endArrow=open;endFill=1;rounded=1;strokeColor=#FF0000;" edge="1" parent="1" source="71" target="81">
                    <mxGeometry relative="1" as="geometry"/>
                </mxCell>
                <mxCell id="85" style="edgeStyle=orthogonalEdgeStyle;rounded=1;orthogonalLoop=1;jettySize=auto;html=1;exitX=0;exitY=0.5;exitDx=0;exitDy=0;entryX=1;entryY=0.5;entryDx=0;entryDy=0;fillColor=#e51400;strokeColor=#FF0000;" edge="1" parent="1" source="83" target="76">
                    <mxGeometry relative="1" as="geometry"/>
                </mxCell>
                <mxCell id="86" value="0" style="edgeLabel;html=1;align=center;verticalAlign=middle;resizable=0;points=[];" connectable="0" vertex="1" parent="85">
                    <mxGeometry x="-0.8799" relative="1" as="geometry">
                        <mxPoint as="offset"/>
                    </mxGeometry>
                </mxCell>
                <mxCell id="87" style="edgeStyle=orthogonalEdgeStyle;rounded=1;orthogonalLoop=1;jettySize=auto;html=1;exitX=0;exitY=0.5;exitDx=0;exitDy=0;entryX=0.5;entryY=1;entryDx=0;entryDy=0;strokeColor=#FF0000;" edge="1" parent="1" source="76" target="71">
                    <mxGeometry relative="1" as="geometry"/>
                </mxCell>
                <mxCell id="88" style="edgeStyle=orthogonalEdgeStyle;rounded=1;orthogonalLoop=1;jettySize=auto;html=1;exitX=0.5;exitY=1;exitDx=0;exitDy=0;entryX=1;entryY=0.5;entryDx=0;entryDy=0;strokeColor=#FF0000;" edge="1" parent="1" source="83" target="75">
                    <mxGeometry relative="1" as="geometry"/>
                </mxCell>
                <mxCell id="89" value="&lt;span style=&quot;text-align: left&quot;&gt;â‰¥1&lt;/span&gt;" style="edgeLabel;html=1;align=center;verticalAlign=middle;resizable=0;points=[];" connectable="0" vertex="1" parent="88">
                    <mxGeometry x="-0.9168" relative="1" as="geometry">
                        <mxPoint as="offset"/>
                    </mxGeometry>
                </mxCell>
                <mxCell id="90" style="edgeStyle=orthogonalEdgeStyle;rounded=1;orthogonalLoop=1;jettySize=auto;html=1;exitX=0;exitY=0.5;exitDx=0;exitDy=0;entryX=1;entryY=0.5;entryDx=0;entryDy=0;strokeColor=#FF0000;" edge="1" parent="1" source="75" target="73">
                    <mxGeometry relative="1" as="geometry"/>
                </mxCell>
                <mxCell id="91" style="edgeStyle=orthogonalEdgeStyle;rounded=1;orthogonalLoop=1;jettySize=auto;html=1;exitX=0.5;exitY=1;exitDx=0;exitDy=0;entryX=0;entryY=0.5;entryDx=0;entryDy=0;strokeColor=#FF0000;" edge="1" parent="1" source="73" target="79">
                    <mxGeometry relative="1" as="geometry"/>
                </mxCell>
            </root>
        </mxGraphModel>
    </diagram>
</mxfile>